<svg id="visual" viewBox="0 0 960 540" width="960" height="540" xmlns="http://www.w3.org/2000/svg" xmlns:xlink="http://www.w3.org/1999/xlink" version="1.1"><g transform="translate(468.8638751653265 257.05698453426226)"><path d="M112.5 -123.3C134.2 -115.9 132.1 -69.4 148.3 -19.8C164.6 29.7 199.2 82.4 187.5 113.6C175.8 144.8 117.8 154.6 72.8 148.7C27.8 142.8 -4.2 121.2 -26.6 101C-49 80.7 -61.7 61.9 -90 39.2C-118.3 16.6 -162 -9.9 -167.1 -37.8C-172.1 -65.8 -138.5 -95.3 -104.2 -100.5C-69.8 -105.7 -34.9 -86.6 5.2 -92.9C45.4 -99.1 90.8 -130.8 112.5 -123.3" fill="#00b8b8"></path></g></svg>