<svg id="visual" viewBox="0 0 960 540" width="960" height="540" xmlns="http://www.w3.org/2000/svg" xmlns:xlink="http://www.w3.org/1999/xlink" version="1.1"><g transform="translate(516.2420585724449 280.5216259596156)"><path d="M88.3 -152.2C103.7 -127.6 97.9 -84.8 96.5 -54C95.1 -23.2 98 -4.3 97.8 15.8C97.5 35.9 94.1 57.2 86 84.6C77.9 111.9 65.2 145.2 43.2 155.4C21.2 165.7 -10 152.9 -42.4 143.7C-74.8 134.4 -108.4 128.8 -133.6 110C-158.7 91.3 -175.4 59.4 -170.3 30.4C-165.3 1.4 -138.6 -24.9 -121.9 -53.3C-105.2 -81.7 -98.6 -112.4 -79.9 -135.5C-61.3 -158.7 -30.6 -174.3 2.9 -178.9C36.5 -183.5 73 -176.9 88.3 -152.2" fill="#00b8b8"></path></g></svg>